<svg data-v-1084b650="" xmlns="http://www.w3.org/2000/svg" viewBox="0 0 300 300"><!----> <!----> <rect data-v-1084b650="" fill="#ffffff" x="0" y="0" width="300px" height="300px" class="logo-background-square"></rect> <!----> <linearGradient data-v-1084b650="" gradientTransform="rotate(25)" id="67d5589c-936c-ef7a-1dd8-2d2bbb16349c" x1="0%" y1="0%" x2="100%" y2="0%"><stop data-v-1084b650="" offset="0%" style="stop-color: rgb(0, 102, 120); stop-opacity: 1;"></stop> <stop data-v-1084b650="" offset="100%" style="stop-color: rgb(79, 168, 255); stop-opacity: 1;"></stop></linearGradient> <g data-v-1084b650="" id="53445f59-d58d-4d80-3003-1ff047287221" fill="url(#67d5589c-936c-ef7a-1dd8-2d2bbb16349c)" stroke="none" transform="matrix(0.7999999999999998,0,0,0.7999999999999998,30.001947021484398,29.99878845214846)"><svg xmlns="http://www.w3.org/2000/svg" viewBox="0 0 100 100"><path d="M56.832 22.681c4.766 0 8.623-3.867 8.623-8.633a8.622 8.622 0 0 0-8.623-8.623c-4.763 0-8.63 3.862-8.63 8.623 0 4.765 3.867 8.633 8.63 8.633zM55.68 55.083l1.064-8.584c3.818 3.574 9.424 5.781 14.893 5.781h.283a3.25 3.25 0 0 0 3.203-3.296 3.247 3.247 0 0 0-3.242-3.208h-.039c-4.385.068-9.023-1.948-11.572-5-1.338-1.587-2.051-3.374-2.148-5.327l.234-1.865a7.503 7.503 0 0 0-4.629-7.861 3.242 3.242 0 0 0-2.058-.752h-.088c-13.074 0-23.972 9.326-27.117 23.237a3.252 3.252 0 0 0 2.451 3.887c.244.059.479.078.723.078a3.25 3.25 0 0 0 3.164-2.529c1.768-7.813 6.367-13.657 12.48-16.416l-2.51 20.234c-.371 2.959 1.045 5.723 3.398 7.236 2.546 10.225-3.008 15.371-14.277 24.6-.703.576-1.416 1.162-2.139 1.758a4.244 4.244 0 0 0-.566 5.977 4.24 4.24 0 0 0 3.281 1.543 4.26 4.26 0 0 0 2.705-.967c.703-.586 1.416-1.172 2.109-1.738 9.49-7.783 18.569-15.225 17.934-27.803 7.207 6.406 13.398 15.596 13.906 26.455a4.242 4.242 0 0 0 4.238 4.053h.205a4.238 4.238 0 0 0 4.043-4.443c-.691-15.079-9.998-27.364-19.929-35.05z"></path></svg></g></svg>