<svg data-v-1084b650="" xmlns="http://www.w3.org/2000/svg" viewBox="0 0 300 300"><!----> <!----> <rect data-v-1084b650="" fill="#ffffff" x="0" y="0" width="300px" height="300px" class="logo-background-square"></rect> <!----> <g data-v-1084b650="" id="a6139da2-2f97-c5ee-e5e5-d1cdf79ee4c3" fill="#000000" transform="matrix(4.899999999999999,0,0,4.899999999999999,31.420000541210214,138.9284511089325)"><path d="M4.44 17.39L4.44 17.39Q2.95 17.39 2.20 17.12L2.20 17.12L2.20 17.12Q1.44 16.86 1.14 16.19L1.14 16.19L1.14 16.19Q0.84 15.53 0.84 14.22L0.84 14.22L0.84 8.43L2.93 8.43L2.93 15.61L4.51 15.61L4.51 15.61Q5.12 15.61 5.42 15.55L5.42 15.55L5.42 15.55Q5.73 15.48 5.84 15.33L5.84 15.33L5.84 15.33Q5.96 15.18 5.96 14.87L5.96 14.87L5.96 8.43L8.05 8.43L8.05 14.22L8.05 14.22Q8.05 15.51 7.74 16.18L7.74 16.18L7.74 16.18Q7.43 16.86 6.68 17.12L6.68 17.12L6.68 17.12Q5.92 17.39 4.44 17.39L4.44 17.39ZM9.88 8.43L11.97 8.43L11.97 17.18L9.88 17.18L9.88 8.43ZM19.64 17.02L19.64 17.02Q19.12 17.22 18.54 17.30L18.54 17.30L18.54 17.30Q17.95 17.39 17.15 17.39L17.15 17.39L17.15 17.39Q15.75 17.39 15.00 16.98L15.00 16.98L15.00 16.98Q14.25 16.58 13.94 15.60L13.94 15.60L13.94 15.60Q13.64 14.63 13.64 12.81L13.64 12.81L13.64 12.81Q13.64 10.98 13.96 10.00L13.96 10.00L13.96 10.00Q14.29 9.03 15.09 8.62L15.09 8.62L15.09 8.62Q15.88 8.22 17.36 8.22L17.36 8.22L17.36 8.22Q17.89 8.22 18.55 8.31L18.55 8.31L18.55 8.31Q19.21 8.40 19.54 8.54L19.54 8.54L19.28 10.22L19.28 10.22Q18.84 10.11 18.26 10.03L18.26 10.03L18.26 10.03Q17.68 9.95 17.30 9.95L17.30 9.95L17.30 9.95Q16.51 9.95 16.19 10.16L16.19 10.16L16.19 10.16Q15.88 10.37 15.88 10.98L15.88 10.98L15.88 15.47L15.88 15.47Q16.56 15.62 17.26 15.62L17.26 15.62L17.26 15.62Q18.45 15.62 19.46 15.29L19.46 15.29L19.64 17.02ZM20.36 13.05L20.36 13.05Q20.36 12.70 20.54 12.61L20.54 12.61L20.54 12.61Q20.73 12.52 21.20 12.52L21.20 12.52L24.44 12.52L24.44 13.61L24.44 13.61Q24.44 13.96 24.25 14.05L24.25 14.05L24.25 14.05Q24.05 14.14 23.60 14.14L23.60 14.14L20.36 14.14L20.36 13.05ZM32.90 17.18L30.63 17.18L29.30 14.36L27.92 14.36L27.92 17.18L25.83 17.18L25.83 8.43L29.61 8.43L29.61 8.43Q30.67 8.43 31.30 8.74L31.30 8.74L31.30 8.74Q31.92 9.04 32.21 9.72L32.21 9.72L32.21 9.72Q32.49 10.39 32.49 11.52L32.49 11.52L32.49 11.52Q32.49 12.49 32.23 13.11L32.23 13.11L32.23 13.11Q31.96 13.73 31.40 14.04L31.40 14.04L32.90 17.18ZM27.92 10.15L27.92 12.80L29.55 12.80L29.55 12.80Q29.97 12.80 30.14 12.67L30.14 12.67L30.14 12.67Q30.31 12.54 30.31 12.21L30.31 12.21L30.31 10.74L30.31 10.74Q30.31 10.40 30.14 10.28L30.14 10.28L30.14 10.28Q29.97 10.15 29.55 10.15L29.55 10.15L27.92 10.15ZM37.38 15.79L37.38 15.79Q38.44 15.79 39.83 15.44L39.83 15.44L40.10 16.90L40.10 16.90Q38.82 17.35 37.11 17.35L37.11 17.35L37.11 17.35Q35.92 17.35 35.23 17.00L35.23 17.00L35.23 17.00Q34.54 16.65 34.22 15.85L34.22 15.85L34.22 15.85Q33.91 15.05 33.91 13.68L33.91 13.68L33.91 13.68Q33.91 12.33 34.24 11.54L34.24 11.54L34.24 11.54Q34.57 10.74 35.29 10.37L35.29 10.37L35.29 10.37Q36.01 10.01 37.23 10.01L37.23 10.01L37.23 10.01Q38.43 10.01 39.08 10.21L39.08 10.21L39.08 10.21Q39.73 10.40 40.01 10.88L40.01 10.88L40.01 10.88Q40.28 11.35 40.28 12.24L40.28 12.24L40.28 12.24Q40.28 13.17 39.94 13.65L39.94 13.65L39.94 13.65Q39.59 14.13 38.72 14.32L38.72 14.32L38.72 14.32Q37.86 14.50 36.13 14.50L36.13 14.50L36.13 15.68L36.13 15.68Q36.57 15.79 37.38 15.79L37.38 15.79ZM37.20 11.58L37.20 11.58Q36.58 11.58 36.36 11.73L36.36 11.73L36.36 11.73Q36.13 11.87 36.13 12.26L36.13 12.26L36.13 13.36L37.32 13.36L37.32 13.36Q37.94 13.36 38.17 13.21L38.17 13.21L38.17 13.21Q38.40 13.06 38.40 12.66L38.40 12.66L38.40 11.58L37.20 11.58ZM41.66 12.19L41.66 12.19Q41.66 11.05 42.36 10.51L42.36 10.51L42.36 10.51Q43.05 9.97 44.55 9.97L44.55 9.97L44.55 9.97Q45.99 9.97 47.21 10.28L47.21 10.28L46.96 11.75L46.96 11.75Q46.19 11.54 45.28 11.54L45.28 11.54L45.28 11.54Q44.48 11.54 43.89 11.68L43.89 11.68L43.89 12.77L43.89 12.77Q45.37 12.95 46.15 13.21L46.15 13.21L46.15 13.21Q46.93 13.47 47.24 13.91L47.24 13.91L47.24 13.91Q47.56 14.35 47.56 15.11L47.56 15.11L47.56 15.11Q47.56 16.32 46.80 16.86L46.80 16.86L46.80 16.86Q46.05 17.39 44.34 17.39L44.34 17.39L44.34 17.39Q42.87 17.39 41.54 16.95L41.54 16.95L41.82 15.39L41.82 15.39Q42.85 15.82 44.09 15.82L44.09 15.82L44.09 15.82Q44.66 15.82 45.33 15.67L45.33 15.67L45.33 14.55L45.33 14.55Q43.74 14.35 42.98 14.11L42.98 14.11L42.98 14.11Q42.22 13.87 41.94 13.45L41.94 13.45L41.94 13.45Q41.66 13.02 41.66 12.19L41.66 12.19Z"></path></g> <linearGradient data-v-1084b650="" gradientTransform="rotate(25)" id="c20850c2-cd90-3da3-e9e9-5836d4dbb9b6" x1="0%" y1="0%" x2="100%" y2="0%"><stop data-v-1084b650="" offset="0%" style="stop-color: rgb(0, 102, 120); stop-opacity: 1;"></stop> <stop data-v-1084b650="" offset="100%" style="stop-color: rgb(79, 168, 255); stop-opacity: 1;"></stop></linearGradient> <g data-v-1084b650="" id="4eff08d9-e1e0-f302-4cea-780c87047c47" fill="url(#c20850c2-cd90-3da3-e9e9-5836d4dbb9b6)" stroke="none" transform="matrix(0.33600662607325193,0,0,0.33600662607325193,99.59739007730656,70.3935640623759)"><svg xmlns="http://www.w3.org/2000/svg" viewBox="0 0 100 100"><path d="M56.832 22.681c4.766 0 8.623-3.867 8.623-8.633a8.622 8.622 0 0 0-8.623-8.623c-4.763 0-8.63 3.862-8.63 8.623 0 4.765 3.867 8.633 8.63 8.633zM55.68 55.083l1.064-8.584c3.818 3.574 9.424 5.781 14.893 5.781h.283a3.25 3.25 0 0 0 3.203-3.296 3.247 3.247 0 0 0-3.242-3.208h-.039c-4.385.068-9.023-1.948-11.572-5-1.338-1.587-2.051-3.374-2.148-5.327l.234-1.865a7.503 7.503 0 0 0-4.629-7.861 3.242 3.242 0 0 0-2.058-.752h-.088c-13.074 0-23.972 9.326-27.117 23.237a3.252 3.252 0 0 0 2.451 3.887c.244.059.479.078.723.078a3.25 3.25 0 0 0 3.164-2.529c1.768-7.813 6.367-13.657 12.48-16.416l-2.51 20.234c-.371 2.959 1.045 5.723 3.398 7.236 2.546 10.225-3.008 15.371-14.277 24.6-.703.576-1.416 1.162-2.139 1.758a4.244 4.244 0 0 0-.566 5.977 4.24 4.24 0 0 0 3.281 1.543 4.26 4.26 0 0 0 2.705-.967c.703-.586 1.416-1.172 2.109-1.738 9.49-7.783 18.569-15.225 17.934-27.803 7.207 6.406 13.398 15.596 13.906 26.455a4.242 4.242 0 0 0 4.238 4.053h.205a4.238 4.238 0 0 0 4.043-4.443c-.691-15.079-9.998-27.364-19.929-35.05z"></path></svg></g></svg>